<?xml version="1.0" encoding="UTF-8"?>
<svg id="Capa_2" data-name="Capa 2" xmlns="http://www.w3.org/2000/svg" viewBox="0 0 100.37 100.37">
  <defs>
    <style>
      .cls-1 {
        fill: #fff;
      }

      .cls-2 {
        fill: #ffdb43;
      }
    </style>
  </defs>
  <g id="PRINT">
    <g id="CUSTOM-group">
      <path class="cls-1" d="m2.94,93.2h31.2c1.26,4.15,5.12,7.17,9.67,7.17h12.74c4.55,0,8.41-3.03,9.67-7.17h31.2c1.62,0,2.94-1.32,2.94-2.94s-1.32-2.94-2.94-2.94h-1.78v-10.26c0-1.9-1.77-3.3-3.62-2.86-4.7,1.12-7.82,1.67-11.83,1.62-6.86-.09-9.79-1.46-17.94-2.09-5.24-.4-9.48,2.02-12.19,5.45-2.71-3.44-6.96-5.86-12.19-5.45-8.13.63-11.09,2-17.94,2.09-4.01.05-7.13-.5-11.83-1.62-1.85-.44-3.62.96-3.62,2.86v10.26h-1.55c-1.62,0-2.94,1.32-2.94,2.94s1.32,2.94,2.94,2.94Zm7.43-12.47c3,.61,6.04,1.02,9.65.97,7.42-.1,10.51-1.5,18.31-2.11,2.83-.22,7.54,1.41,8.89,6.78,0,0,0,0,0,0,.73,2.9,4.94,3.01,5.7,0,0,0,0,0,0,0,1.34-5.38,6.05-7,8.89-6.78,7.81.6,10.89,2.01,18.31,2.11,3.61.05,6.65-.36,9.65-.97v6.59h-26.03s0,0-.02,0c-1.62,0-2.94,1.32-2.94,2.94,0,2.33-1.9,4.23-4.23,4.23h-12.74c-2.33,0-4.23-1.9-4.23-4.23,0-1.62-1.32-2.94-2.94-2.94,0,0,0,0-.02,0H10.37v-6.59Z"/>
      <path class="cls-2" d="m47.13,67.96h6.06c4.68,0,8.51-3.68,8.54-8.2l.05-6.17c.84-5.29,2.96-10.21,6.28-14.63,2.94-3.9,4.49-8.55,4.49-13.44,0-12.59-10.3-22.54-22.68-22.36-12.05.17-21.87,9.97-22.04,22.02-.07,5.05,1.49,9.83,4.54,13.84,3.29,4.34,5.39,9.23,6.23,14.53v6.15c0,4.55,3.83,8.26,8.54,8.26h0Zm8.71-8.24c0,1.3-1.2,2.36-2.66,2.36h-6.06c-1.47,0-2.66-1.07-2.66-2.38v-3.51h11.4l-.03,3.52Zm-22.14-34.45c.13-8.83,7.42-16.11,16.24-16.23,9.18-.14,16.72,7.26,16.72,16.48,0,3.61-1.14,7.03-3.31,9.9-3.42,4.53-5.75,9.53-6.94,14.89h-3.29v-17.05c0-1.62-1.32-2.94-2.94-2.94s-2.94,1.32-2.94,2.94v17.05h-3.28c-1.19-5.38-3.51-10.36-6.92-14.84-2.24-2.95-3.4-6.48-3.34-10.2h0Z"/>
      <path class="cls-2" d="m22.13,22.62c0-1.62-1.32-2.94-2.94-2.94h-9.8c-1.62,0-2.94,1.32-2.94,2.94s1.32,2.94,2.94,2.94h9.8c1.62,0,2.94-1.32,2.94-2.94Z"/>
      <path class="cls-2" d="m78.41,39.85l8.45,4.98c1.4.82,3.2.36,4.03-1.04.82-1.4.36-3.2-1.04-4.03l-8.45-4.98c-1.4-.82-3.2-.36-4.03,1.04-.82,1.4-.36,3.2,1.04,4.03Z"/>
      <path class="cls-2" d="m13.52,44.83l8.45-4.98c1.4-.82,1.87-2.63,1.04-4.03-.82-1.4-2.63-1.87-4.03-1.04l-8.45,4.98c-1.4.82-1.87,2.63-1.04,4.03.82,1.4,2.63,1.87,4.03,1.04Z"/>
      <path class="cls-2" d="m81.39,10.45l8.45-4.98c1.4-.82,1.87-2.63,1.04-4.03-.82-1.4-2.63-1.87-4.03-1.04l-8.45,4.98c-1.4.82-1.87,2.63-1.04,4.03.82,1.4,2.63,1.87,4.03,1.04Z"/>
      <path class="cls-2" d="m21.97,5.38L13.52.41c-1.4-.82-3.2-.36-4.03,1.04-.82,1.4-.36,3.2,1.04,4.03l8.45,4.98c1.4.82,3.2.36,4.03-1.04.82-1.4.36-3.2-1.04-4.03Z"/>
      <path class="cls-2" d="m93.93,22.62c0-1.62-1.32-2.94-2.94-2.94h-9.8c-1.62,0-2.94,1.32-2.94,2.94s1.32,2.94,2.94,2.94h9.8c1.62,0,2.94-1.32,2.94-2.94Z"/>
    </g>
  </g>
</svg>